<svg width="50" height="71" viewBox="0 0 50 71" fill="none" xmlns="http://www.w3.org/2000/svg">
<g clip-path="url(#clip0_206_68)">
<path d="M13.7861 52.595C15.8592 55.2118 17.746 57.9683 19.4328 60.8446C20.873 63.5495 21.4734 65.3837 22.526 68.643C23.1715 70.4437 23.7549 70.9811 25.0092 70.9811C26.376 70.9811 26.9961 70.0668 27.4752 68.6528C28.4701 65.5749 29.2508 63.2259 30.4824 61.0063C32.8992 56.7211 35.9023 52.9133 38.8531 49.2536C39.6519 48.2178 44.8168 42.1836 47.142 37.4223C47.142 37.4223 49.9998 32.1921 49.9998 24.8876C49.9998 18.055 47.1814 13.3162 47.1814 13.3162L39.0672 15.4686L34.1395 28.3242L32.9203 30.0969L32.6766 30.4181L32.3523 30.8201L31.7832 31.4622L30.9699 32.2676L26.5818 35.8087L15.6111 42.083L13.7861 52.595Z" fill="#34A853"/>
<path d="M2.46338 36.5433C5.14092 42.6011 10.3042 47.9263 13.7976 52.5995L32.3524 30.8286C32.3524 30.8286 29.7384 34.215 24.9966 34.215C19.7147 34.215 15.4478 30.0372 15.4478 24.7692C15.4478 21.1568 17.6419 18.675 17.6419 18.675L5.04639 22.018L2.46338 36.5433Z" fill="#FBBC04"/>
<path d="M32.5597 1.11958C38.7222 3.08765 43.9968 7.21939 47.1872 13.312L32.3581 30.816C32.3581 30.816 34.5522 28.2894 34.5522 24.6993C34.5522 19.3087 29.9696 15.2817 25.019 15.2817C20.3376 15.2817 17.6489 18.6624 17.6489 18.6624V7.63513L32.5597 1.11938V1.11958Z" fill="#4285F4"/>
<path d="M5.8623 8.85372C9.54297 4.49177 16.0195 0 24.9484 0C29.2805 0 32.5441 1.12652 32.5441 1.12652L17.6348 18.672H7.07129L5.8623 8.85372Z" fill="#1A73E8"/>
<path d="M2.46328 36.5432C2.46328 36.5432 0 31.7651 0 24.8431C0 18.3008 2.56758 12.5821 5.8623 8.85376L17.6432 18.6736L2.46328 36.5432Z" fill="#EA4335"/>
</g>
<defs>
<clipPath id="clip0_206_68">
<rect width="50" height="71" fill="white"/>
</clipPath>
</defs>
</svg>
