<svg width="1111" height="401" viewBox="0 0 1111 401" fill="none" xmlns="http://www.w3.org/2000/svg">
<mask id="mask0_0_1" style="mask-type:luminance" maskUnits="userSpaceOnUse" x="0" y="0" width="401" height="401">
<circle cx="200.33" cy="200.55" r="200" fill="white"/>
</mask>
<g mask="url(#mask0_0_1)">
<path d="M100.348 -206.951L101.055 -207.657L100.349 -208.365L99.6412 -207.658L100.348 -206.951ZM101.054 -206.243L101.762 -206.95L101.054 -206.243ZM98.9327 -205.537L98.226 -206.245L97.5184 -205.538L98.2251 -204.831L98.9327 -205.537ZM99.6393 -204.83L100.347 -205.536L100.347 -205.536L99.6393 -204.83ZM623.605 319.843L624.313 319.137L623.605 319.843ZM624.312 320.551L623.604 321.258L624.311 321.965L625.019 321.259L624.312 320.551ZM625.727 319.138L626.434 319.845L627.141 319.139L626.435 318.431L625.727 319.138ZM625.021 318.43L624.313 319.137L625.021 318.43ZM83.3773 -189.98L84.0848 -190.687L83.3782 -191.394L82.6706 -190.688L83.3773 -189.98ZM84.0839 -189.272L84.7915 -189.979L84.7915 -189.979L84.0839 -189.272ZM81.9621 -188.567L81.2555 -189.274L80.5479 -188.568L81.2545 -187.86L81.9621 -188.567ZM82.6687 -187.859L81.9611 -187.153L81.9611 -187.153L82.6687 -187.859ZM606.635 336.814L605.927 337.521L606.635 336.814ZM607.341 337.522L606.634 338.228L607.34 338.936L608.048 338.229L607.341 337.522ZM608.757 336.108L609.463 336.816L610.171 336.109L609.464 335.402L608.757 336.108ZM608.05 335.401L608.758 334.694L608.05 335.401ZM67.1133 -172.302L66.4057 -171.595L66.4057 -171.595L67.1133 -172.302ZM66.4067 -173.01L67.1143 -173.716L66.4076 -174.424L65.7001 -173.717L66.4067 -173.01ZM591.079 352.371L591.787 351.665L591.079 352.371ZM591.786 353.079L592.493 353.786L593.2 353.08L592.494 352.372L591.786 353.079ZM590.371 354.492L589.663 355.199L590.37 355.906L591.078 355.2L590.371 354.492ZM589.664 353.785L590.372 353.078L589.664 353.785ZM65.6982 -170.889L64.9906 -170.182L64.9906 -170.182L65.6982 -170.889ZM64.9915 -171.596L64.2849 -172.304L63.5773 -171.597L64.2839 -170.89L64.9915 -171.596ZM49.4361 -156.039L50.1437 -156.746L49.4371 -157.453L48.7295 -156.747L49.4361 -156.039ZM50.1428 -155.331L50.8503 -156.038L50.8503 -156.038L50.1428 -155.331ZM48.021 -154.626L47.3143 -155.333L46.6067 -154.627L47.3134 -153.919L48.021 -154.626ZM48.7276 -153.918L49.4352 -154.625L49.4352 -154.625L48.7276 -153.918ZM572.694 370.755L571.986 371.462L572.694 370.755ZM573.4 371.463L572.693 372.169L573.399 372.877L574.107 372.17L573.4 371.463ZM574.815 370.049L575.522 370.757L576.23 370.05L575.523 369.343L574.815 370.049ZM574.109 369.342L573.401 370.048L574.109 369.342ZM33.1722 -138.361L33.8798 -139.067L33.8798 -139.067L33.1722 -138.361ZM32.4656 -139.068L33.1732 -139.775L32.4665 -140.483L31.7589 -139.776L32.4656 -139.068ZM557.138 386.312L556.431 387.019L557.138 386.312ZM557.845 387.02L558.552 387.728L559.259 387.021L558.553 386.313L557.845 387.02ZM556.43 388.433L555.722 389.14L556.429 389.847L557.136 389.141L556.43 388.433ZM555.723 387.726L555.016 388.432L555.723 387.726ZM31.757 -136.948L32.4646 -137.654L32.4646 -137.654L31.757 -136.948ZM31.0504 -137.655L30.3438 -138.363L29.6362 -137.656L30.3428 -136.949L31.0504 -137.655ZM15.495 -122.098L16.2026 -122.804L15.496 -123.512L14.7884 -122.805L15.495 -122.098ZM16.2016 -121.39L16.9092 -122.097L16.9092 -122.097L16.2016 -121.39ZM14.0798 -120.685L13.3732 -121.392L12.6656 -120.686L13.3723 -119.978L14.0798 -120.685ZM14.7865 -119.977L15.4941 -120.684L15.4941 -120.684L14.7865 -119.977ZM538.753 404.696L538.045 405.403L538.753 404.696ZM539.459 405.404L538.752 406.11L539.458 406.818L540.166 406.111L539.459 405.404ZM540.874 403.991L541.581 404.698L542.289 403.991L541.582 403.284L540.874 403.991ZM540.168 403.283L539.46 403.99L540.168 403.283ZM-0.768815 -104.42L-0.0612312 -105.127L-0.0612333 -105.127L-0.768815 -104.42ZM-1.47545 -105.128L-0.767865 -105.834L-1.47449 -106.542L-2.18208 -105.835L-1.47545 -105.128ZM523.197 420.253L522.49 420.96L523.197 420.253ZM523.904 420.961L524.611 421.668L525.318 420.962L524.612 420.254L523.904 420.961ZM522.489 422.374L521.781 423.081L522.488 423.788L523.195 423.082L522.489 422.374ZM521.782 421.667L521.075 422.373L521.782 421.667ZM-2.18398 -103.007L-1.4764 -103.713L-1.4764 -103.713L-2.18398 -103.007ZM-2.89061 -103.714L-3.59725 -104.422L-4.30483 -103.715L-3.5982 -103.008L-2.89061 -103.714ZM-18.4461 -88.1567L-17.7385 -88.8633L-18.4452 -89.5709L-19.1527 -88.8643L-18.4461 -88.1567ZM-17.7395 -87.4491L-17.0319 -88.1558L-17.0319 -88.1558L-17.7395 -87.4491ZM-19.8613 -86.7434L-20.5679 -87.451L-21.2755 -86.7444L-20.5689 -86.0368L-19.8613 -86.7434ZM-19.1547 -86.0359L-18.4471 -86.7425L-18.4471 -86.7425L-19.1547 -86.0359ZM504.811 438.637L504.104 439.344L504.811 438.637ZM505.518 439.345L504.81 440.052L505.517 440.759L506.225 440.053L505.518 439.345ZM506.933 437.932L507.64 438.639L508.347 437.933L507.641 437.225L506.933 437.932ZM506.227 437.224L505.519 437.931L506.227 437.224ZM-34.71 -70.4786L-34.0025 -71.1852L-34.0025 -71.1852L-34.71 -70.4786ZM-35.4167 -71.1861L-34.7091 -71.8928L-35.4157 -72.6004L-36.1233 -71.8937L-35.4167 -71.1861ZM489.256 454.195L488.548 454.901L489.256 454.195ZM489.963 454.902L490.669 455.61L491.377 454.903L490.67 454.196L489.963 454.902ZM488.548 456.315L487.84 457.022L488.547 457.73L489.254 457.023L488.548 456.315ZM487.841 455.608L487.133 456.315L487.841 455.608ZM-36.1252 -69.0653L-35.4176 -69.7719L-35.4176 -69.7719L-36.1252 -69.0653ZM-36.8318 -69.7729L-37.5385 -70.4805L-38.2461 -69.7738L-37.5394 -69.0663L-36.8318 -69.7729ZM-52.3872 -54.2156L-51.6797 -54.9222L-52.3863 -55.6298L-53.0939 -54.9232L-52.3872 -54.2156ZM-51.6806 -53.508L-50.973 -54.2146L-50.973 -54.2146L-51.6806 -53.508ZM-53.8024 -52.8023L-54.509 -53.5099L-55.2166 -52.8033L-54.51 -52.0957L-53.8024 -52.8023ZM-53.0958 -52.0947L-52.3882 -52.8014L-52.3882 -52.8014L-53.0958 -52.0947ZM470.87 472.578L470.163 473.285L470.87 472.578ZM471.577 473.286L470.869 473.993L471.576 474.7L472.284 473.994L471.577 473.286ZM472.992 471.873L473.699 472.58L474.406 471.874L473.7 471.166L472.992 471.873ZM472.285 471.165L471.578 471.872L472.285 471.165ZM-68.6512 -36.5374L-67.9436 -37.2441L-67.9436 -37.2441L-68.6512 -36.5374ZM-69.3578 -37.245L-68.6502 -37.9517L-69.3569 -38.6592L-70.0644 -37.9526L-69.3578 -37.245ZM455.315 488.136L454.607 488.842L455.315 488.136ZM456.022 488.843L456.728 489.551L457.436 488.844L456.729 488.137L456.022 488.843ZM454.606 490.257L453.899 490.963L454.605 491.671L455.313 490.964L454.606 490.257ZM453.9 489.549L453.192 490.256L453.9 489.549ZM-70.0663 -35.1242L-69.3588 -35.8308L-69.3588 -35.8308L-70.0663 -35.1242ZM-70.773 -35.8318L-71.4796 -36.5393L-72.1872 -35.8327L-71.4806 -35.1251L-70.773 -35.8318ZM-86.3284 -20.2745L-85.6208 -20.9811L-86.3274 -21.6887L-87.035 -20.982L-86.3284 -20.2745ZM-85.6217 -19.5669L-84.9142 -20.2735L-84.9142 -20.2735L-85.6217 -19.5669ZM-87.7435 -18.8612L-88.4502 -19.5688L-89.1578 -18.8621L-88.4511 -18.1546L-87.7435 -18.8612ZM-87.0369 -18.1536L-86.3293 -18.8602L-86.3293 -18.8602L-87.0369 -18.1536ZM436.929 506.52L436.222 507.226L436.929 506.52ZM437.636 507.227L436.928 507.934L437.635 508.641L438.342 507.935L437.636 507.227ZM439.051 505.814L439.758 506.521L440.465 505.815L439.759 505.107L439.051 505.814ZM438.344 505.106L437.637 505.813L438.344 505.106ZM-102.592 -2.59631L-101.885 -3.30294L-101.885 -3.30294L-102.592 -2.59631ZM-103.299 -3.30389L-102.591 -4.01053L-103.298 -4.7181L-104.006 -4.01147L-103.299 -3.30389ZM421.374 522.077L420.666 522.784L421.374 522.077ZM422.08 522.784L422.787 523.492L423.495 522.785L422.788 522.078L422.08 522.784ZM420.665 524.198L419.958 524.904L420.664 525.612L421.372 524.905L420.665 524.198ZM419.959 523.49L419.251 524.197L419.959 523.49ZM-104.007 -1.18305L-103.3 -1.88968L-103.3 -1.88968L-104.007 -1.18305ZM-104.714 -1.89063L-105.421 -2.59821L-106.128 -1.89158L-105.422 -1.184L-104.714 -1.89063ZM-120.269 13.6664L-119.562 12.9598L-120.268 12.2522L-120.976 12.9589L-120.269 13.6664ZM-119.563 14.374L-118.855 13.6674L-118.855 13.6674L-119.563 14.374ZM-121.685 15.0797L-122.391 14.3721L-123.099 15.0787L-122.392 15.7863L-121.685 15.0797ZM-120.978 15.7873L-120.27 15.0806L-120.27 15.0806L-120.978 15.7873ZM402.988 540.46L402.281 541.167L402.988 540.46ZM403.695 541.168L402.987 541.875L403.694 542.582L404.401 541.876L403.695 541.168ZM405.11 539.755L405.817 540.462L406.524 539.756L405.818 539.048L405.11 539.755ZM404.403 539.047L403.696 539.754L404.403 539.047ZM-136.533 31.3448L-135.826 30.6382L-135.826 30.6382L-136.533 31.3448ZM-137.24 30.6372L-136.532 29.9306L-137.239 29.223L-137.947 29.9297L-137.24 30.6372ZM387.433 556.018L386.725 556.725L387.433 556.018ZM388.139 556.726L388.846 557.433L389.554 556.727L388.847 556.019L388.139 556.726ZM386.724 558.139L386.017 558.845L386.723 559.553L387.431 558.846L386.724 558.139ZM386.018 557.431L385.31 558.138L386.018 557.431ZM-137.949 32.7581L-137.241 32.0514L-137.241 32.0514L-137.949 32.7581ZM-138.655 32.0505L-139.362 31.3429L-140.069 32.0495L-139.363 32.7571L-138.655 32.0505ZM-154.211 47.6078L-153.503 46.9012L-154.21 46.1936L-154.917 46.9002L-154.211 47.6078ZM-153.504 48.3154L-152.796 47.6087L-152.796 47.6087L-153.504 48.3154ZM-155.626 49.0211L-156.332 48.3135L-157.04 49.0201L-156.333 49.7277L-155.626 49.0211ZM-154.919 49.7286L-154.212 49.022L-154.212 49.022L-154.919 49.7286ZM369.047 574.402L368.339 575.108L369.047 574.402ZM369.754 575.109L369.046 575.816L369.753 576.524L370.46 575.817L369.754 575.109ZM371.169 573.696L371.875 574.404L372.583 573.697L371.876 572.99L371.169 573.696ZM370.462 572.989L369.755 573.695L370.462 572.989ZM-170.475 65.2859L-169.767 64.5793L-169.767 64.5793L-170.475 65.2859ZM-171.181 64.5784L-170.474 63.8717L-171.18 63.1641L-171.888 63.8708L-171.181 64.5784ZM353.492 589.959L352.784 590.666L353.492 589.959ZM354.198 590.667L354.905 591.374L355.612 590.668L354.906 589.96L354.198 590.667ZM352.783 592.08L352.075 592.787L352.782 593.494L353.49 592.788L352.783 592.08ZM352.076 591.372L351.369 592.079L352.076 591.372ZM-171.89 66.6992L-171.182 65.9926L-171.182 65.9926L-171.89 66.6992ZM-172.596 65.9916L-173.303 65.284L-174.011 65.9907L-173.304 66.6982L-172.596 65.9916ZM-188.152 81.5489L-187.444 80.8423L-188.151 80.1347L-188.858 80.8413L-188.152 81.5489ZM-187.445 82.2565L-186.738 81.5499L-186.738 81.5499L-187.445 82.2565ZM-189.567 82.9622L-190.274 82.2546L-190.981 82.9612L-190.274 83.6688L-189.567 82.9622ZM-188.86 83.6698L-188.153 82.9631L-188.153 82.9631L-188.86 83.6698ZM335.106 608.343L334.398 609.05L335.106 608.343ZM335.812 609.051L335.105 609.757L335.812 610.465L336.519 609.758L335.812 609.051ZM337.228 607.637L337.934 608.345L338.642 607.638L337.935 606.931L337.228 607.637ZM336.521 606.93L335.813 607.636L336.521 606.93ZM99.6402 -206.244L100.347 -205.536L101.762 -206.95L101.055 -207.657L99.6402 -206.244ZM99.6393 -204.83L101.054 -206.243L99.6412 -207.658L98.226 -206.245L99.6393 -204.83ZM100.347 -205.536L99.6402 -206.244L98.2251 -204.831L98.9317 -204.123L100.347 -205.536ZM624.313 319.137L100.347 -205.536L98.9317 -204.123L622.898 320.55L624.313 319.137ZM625.02 319.844L624.313 319.137L622.898 320.55L623.604 321.258L625.02 319.844ZM625.021 318.43L623.605 319.843L625.019 321.259L626.434 319.845L625.021 318.43ZM624.313 319.137L625.02 319.844L626.435 318.431L625.728 317.724L624.313 319.137ZM100.347 -205.536L624.313 319.137L625.728 317.724L101.762 -206.95L100.347 -205.536ZM82.6697 -189.273L83.3763 -188.566L84.7915 -189.979L84.0848 -190.687L82.6697 -189.273ZM82.6687 -187.859L84.0839 -189.272L82.6706 -190.688L81.2555 -189.274L82.6687 -187.859ZM83.3763 -188.566L82.6697 -189.273L81.2545 -187.86L81.9611 -187.153L83.3763 -188.566ZM607.342 336.107L83.3763 -188.566L81.9611 -187.153L605.927 337.521L607.342 336.107ZM608.049 336.815L607.342 336.107L605.927 337.521L606.634 338.228L608.049 336.815ZM608.05 335.401L606.635 336.814L608.048 338.229L609.463 336.816L608.05 335.401ZM607.342 336.107L608.049 336.815L609.464 335.402L608.758 334.694L607.342 336.107ZM83.3763 -188.566L607.342 336.107L608.758 334.694L84.7915 -189.979L83.3763 -188.566ZM67.8209 -173.009L67.1143 -173.716L65.6991 -172.303L66.4057 -171.595L67.8209 -173.009ZM591.787 351.665L67.8209 -173.009L66.4057 -171.595L590.372 353.078L591.787 351.665ZM592.494 352.372L591.787 351.665L590.372 353.078L591.078 353.785L592.494 352.372ZM591.078 355.2L592.493 353.786L591.079 352.371L589.664 353.785L591.078 355.2ZM588.957 354.491L589.663 355.199L591.079 353.786L590.372 353.078L588.957 354.491ZM64.9906 -170.182L588.957 354.491L590.372 353.078L66.4057 -171.595L64.9906 -170.182ZM64.2839 -170.89L64.9906 -170.182L66.4057 -171.595L65.6991 -172.303L64.2839 -170.89ZM65.7001 -173.717L64.2849 -172.304L65.6982 -170.889L67.1133 -172.302L65.7001 -173.717ZM48.7286 -155.332L49.4352 -154.625L50.8503 -156.038L50.1437 -156.746L48.7286 -155.332ZM48.7276 -153.918L50.1428 -155.331L48.7295 -156.747L47.3143 -155.333L48.7276 -153.918ZM49.4352 -154.625L48.7285 -155.332L47.3134 -153.919L48.02 -153.211L49.4352 -154.625ZM573.401 370.048L49.4352 -154.625L48.02 -153.211L571.986 371.462L573.401 370.048ZM574.108 370.756L573.401 370.048L571.986 371.462L572.693 372.169L574.108 370.756ZM574.109 369.342L572.694 370.755L574.107 372.17L575.522 370.757L574.109 369.342ZM573.401 370.048L574.108 370.756L575.523 369.343L574.816 368.635L573.401 370.048ZM49.4352 -154.625L573.401 370.048L574.816 368.635L50.8503 -156.038L49.4352 -154.625ZM33.8798 -139.067L33.1732 -139.775L31.758 -138.362L32.4646 -137.654L33.8798 -139.067ZM557.846 385.606L33.8798 -139.067L32.4646 -137.654L556.431 387.019L557.846 385.606ZM558.553 386.313L557.846 385.606L556.431 387.019L557.137 387.727L558.553 386.313ZM557.136 389.141L558.552 387.728L557.138 386.312L555.723 387.726L557.136 389.141ZM555.016 388.432L555.722 389.14L557.137 387.727L556.431 387.019L555.016 388.432ZM31.0495 -136.241L555.016 388.432L556.431 387.019L32.4646 -137.654L31.0495 -136.241ZM30.3428 -136.949L31.0495 -136.241L32.4646 -137.654L31.758 -138.362L30.3428 -136.949ZM31.7589 -139.776L30.3438 -138.363L31.757 -136.948L33.1722 -138.361L31.7589 -139.776ZM14.7874 -121.391L15.4941 -120.684L16.9092 -122.097L16.2026 -122.804L14.7874 -121.391ZM14.7865 -119.977L16.2016 -121.39L14.7884 -122.805L13.3732 -121.392L14.7865 -119.977ZM15.4941 -120.684L14.7874 -121.391L13.3723 -119.978L14.0789 -119.27L15.4941 -120.684ZM539.46 403.99L15.4941 -120.684L14.0789 -119.27L538.045 405.403L539.46 403.99ZM540.167 404.697L539.46 403.99L538.045 405.403L538.752 406.11L540.167 404.697ZM540.168 403.283L538.753 404.696L540.166 406.111L541.581 404.698L540.168 403.283ZM539.46 403.99L540.167 404.697L541.582 403.284L540.875 402.576L539.46 403.99ZM15.4941 -120.684L539.46 403.99L540.875 402.576L16.9092 -122.097L15.4941 -120.684ZM-0.0612333 -105.127L-0.767865 -105.834L-2.18303 -104.421L-1.4764 -103.713L-0.0612333 -105.127ZM523.905 419.547L-0.0612312 -105.127L-1.4764 -103.713L522.49 420.96L523.905 419.547ZM524.612 420.254L523.905 419.547L522.49 420.96L523.196 421.668L524.612 420.254ZM523.195 423.082L524.611 421.668L523.197 420.253L521.782 421.667L523.195 423.082ZM521.075 422.373L521.781 423.081L523.196 421.668L522.49 420.96L521.075 422.373ZM-2.89157 -102.3L521.075 422.373L522.49 420.96L-1.4764 -103.713L-2.89157 -102.3ZM-3.5982 -103.008L-2.89156 -102.3L-1.4764 -103.713L-2.18303 -104.421L-3.5982 -103.008ZM-2.18208 -105.835L-3.59725 -104.422L-2.18398 -103.007L-0.768815 -104.42L-2.18208 -105.835ZM-19.1537 -87.4501L-18.4471 -86.7425L-17.0319 -88.1558L-17.7385 -88.8633L-19.1537 -87.4501ZM-19.1547 -86.0359L-17.7395 -87.4491L-19.1527 -88.8643L-20.5679 -87.451L-19.1547 -86.0359ZM-18.4471 -86.7425L-19.1537 -87.4501L-20.5689 -86.0368L-19.8622 -85.3292L-18.4471 -86.7425ZM505.519 437.931L-18.4471 -86.7425L-19.8622 -85.3292L504.104 439.344L505.519 437.931ZM506.226 438.638L505.519 437.931L504.104 439.344L504.81 440.052L506.226 438.638ZM506.227 437.224L504.811 438.637L506.225 440.053L507.64 438.639L506.227 437.224ZM505.519 437.931L506.226 438.638L507.641 437.225L506.934 436.517L505.519 437.931ZM-18.4471 -86.7425L505.519 437.931L506.934 436.517L-17.0319 -88.1558L-18.4471 -86.7425ZM-34.0025 -71.1852L-34.7091 -71.8928L-36.1243 -70.4795L-35.4176 -69.7719L-34.0025 -71.1852ZM489.964 453.488L-34.0025 -71.1852L-35.4176 -69.7719L488.548 454.901L489.964 453.488ZM490.67 454.196L489.964 453.488L488.548 454.901L489.255 455.609L490.67 454.196ZM489.254 457.023L490.669 455.61L489.256 454.195L487.841 455.608L489.254 457.023ZM487.133 456.315L487.84 457.022L489.255 455.609L488.548 454.901L487.133 456.315ZM-36.8328 -68.3587L487.133 456.315L488.549 454.901L-35.4176 -69.7719L-36.8328 -68.3587ZM-37.5394 -69.0663L-36.8328 -68.3587L-35.4176 -69.7719L-36.1243 -70.4795L-37.5394 -69.0663ZM-36.1233 -71.8937L-37.5385 -70.4805L-36.1252 -69.0653L-34.71 -70.4786L-36.1233 -71.8937ZM-53.0948 -53.5089L-52.3882 -52.8014L-50.973 -54.2146L-51.6797 -54.9222L-53.0948 -53.5089ZM-53.0958 -52.0947L-51.6806 -53.508L-53.0939 -54.9232L-54.509 -53.5099L-53.0958 -52.0947ZM-52.3882 -52.8014L-53.0948 -53.509L-54.51 -52.0957L-53.8034 -51.3881L-52.3882 -52.8014ZM471.578 471.872L-52.3882 -52.8014L-53.8034 -51.3881L470.163 473.285L471.578 471.872ZM472.285 472.579L471.578 471.872L470.163 473.285L470.869 473.993L472.285 472.579ZM472.285 471.165L470.87 472.578L472.284 473.994L473.699 472.58L472.285 471.165ZM471.578 471.872L472.285 472.579L473.7 471.166L472.993 470.459L471.578 471.872ZM-52.3882 -52.8014L471.578 471.872L472.993 470.459L-50.973 -54.2146L-52.3882 -52.8014ZM-67.9436 -37.2441L-68.6502 -37.9517L-70.0654 -36.5384L-69.3588 -35.8308L-67.9436 -37.2441ZM456.023 487.429L-67.9436 -37.2441L-69.3588 -35.8308L454.607 488.842L456.023 487.429ZM456.729 488.137L456.022 487.429L454.607 488.842L455.314 489.55L456.729 488.137ZM455.313 490.964L456.728 489.551L455.315 488.136L453.9 489.549L455.313 490.964ZM453.192 490.256L453.899 490.963L455.314 489.55L454.607 488.842L453.192 490.256ZM-70.7739 -34.4175L453.192 490.256L454.607 488.842L-69.3588 -35.8308L-70.7739 -34.4175ZM-71.4806 -35.1251L-70.7739 -34.4175L-69.3588 -35.8308L-70.0654 -36.5384L-71.4806 -35.1251ZM-70.0644 -37.9526L-71.4796 -36.5393L-70.0663 -35.1242L-68.6512 -36.5374L-70.0644 -37.9526ZM-87.0359 -19.5678L-86.3293 -18.8602L-84.9142 -20.2735L-85.6208 -20.9811L-87.0359 -19.5678ZM-87.0369 -18.1536L-85.6217 -19.5669L-87.035 -20.982L-88.4502 -19.5688L-87.0369 -18.1536ZM-86.3293 -18.8602L-87.036 -19.5678L-88.4511 -18.1546L-87.7445 -17.447L-86.3293 -18.8602ZM437.637 505.813L-86.3293 -18.8602L-87.7445 -17.447L436.222 507.226L437.637 505.813ZM438.343 506.521L437.637 505.813L436.222 507.226L436.928 507.934L438.343 506.521ZM438.344 505.106L436.929 506.52L438.342 507.935L439.758 506.521L438.344 505.106ZM437.637 505.813L438.343 506.521L439.759 505.107L439.052 504.4L437.637 505.813ZM-86.3293 -18.8602L437.637 505.813L439.052 504.4L-84.9142 -20.2735L-86.3293 -18.8602ZM-101.885 -3.30294L-102.591 -4.01053L-104.007 -2.59726L-103.3 -1.88968L-101.885 -3.30294ZM422.081 521.37L-101.885 -3.30294L-103.3 -1.88968L420.666 522.784L422.081 521.37ZM422.788 522.078L422.081 521.37L420.666 522.784L421.373 523.491L422.788 522.078ZM421.372 524.905L422.787 523.492L421.374 522.077L419.959 523.49L421.372 524.905ZM419.251 524.197L419.958 524.904L421.373 523.491L420.666 522.784L419.251 524.197ZM-104.715 -0.476422L419.251 524.197L420.666 522.784L-103.3 -1.88968L-104.715 -0.476422ZM-105.422 -1.184L-104.715 -0.47642L-103.3 -1.88968L-104.007 -2.59727L-105.422 -1.184ZM-104.006 -4.01147L-105.421 -2.59821L-104.007 -1.18305L-102.592 -2.59631L-104.006 -4.01147ZM-120.977 14.3731L-120.27 15.0806L-118.855 13.6674L-119.562 12.9598L-120.977 14.3731ZM-120.978 15.7873L-119.563 14.374L-120.976 12.9589L-122.391 14.3721L-120.978 15.7873ZM-120.27 15.0806L-120.977 14.3731L-122.392 15.7863L-121.686 16.4939L-120.27 15.0806ZM403.696 539.754L-120.27 15.0806L-121.686 16.4939L402.281 541.167L403.696 539.754ZM404.402 540.461L403.696 539.754L402.281 541.167L402.987 541.875L404.402 540.461ZM404.403 539.047L402.988 540.46L404.401 541.876L405.817 540.462L404.403 539.047ZM403.696 539.754L404.402 540.461L405.818 539.048L405.111 538.341L403.696 539.754ZM-120.27 15.0806L403.696 539.754L405.111 538.341L-118.855 13.6674L-120.27 15.0806ZM-135.826 30.6382L-136.532 29.9306L-137.948 31.3439L-137.241 32.0514L-135.826 30.6382ZM388.14 555.311L-135.826 30.6382L-137.241 32.0514L386.725 556.725L388.14 555.311ZM388.847 556.019L388.14 555.311L386.725 556.725L387.432 557.432L388.847 556.019ZM387.431 558.846L388.846 557.433L387.433 556.018L386.018 557.431L387.431 558.846ZM385.31 558.138L386.017 558.845L387.432 557.432L386.725 556.725L385.31 558.138ZM-138.656 33.4647L385.31 558.138L386.725 556.725L-137.241 32.0514L-138.656 33.4647ZM-139.363 32.7571L-138.656 33.4647L-137.241 32.0514L-137.948 31.3439L-139.363 32.7571ZM-137.947 29.9297L-139.362 31.3429L-137.949 32.7581L-136.533 31.3448L-137.947 29.9297ZM-154.918 48.3144L-154.212 49.022L-152.796 47.6087L-153.503 46.9012L-154.918 48.3144ZM-154.919 49.7286L-153.504 48.3154L-154.917 46.9002L-156.332 48.3135L-154.919 49.7286ZM-154.212 49.022L-154.918 48.3144L-156.333 49.7277L-155.627 50.4353L-154.212 49.022ZM369.755 573.695L-154.212 49.022L-155.627 50.4353L368.339 575.108L369.755 573.695ZM370.461 574.403L369.755 573.695L368.339 575.108L369.046 575.816L370.461 574.403ZM370.462 572.989L369.047 574.402L370.46 575.817L371.875 574.404L370.462 572.989ZM369.755 573.695L370.461 574.403L371.876 572.99L371.17 572.282L369.755 573.695ZM-154.212 49.022L369.755 573.695L371.17 572.282L-152.796 47.6087L-154.212 49.022ZM-169.767 64.5793L-170.474 63.8717L-171.889 65.285L-171.182 65.9926L-169.767 64.5793ZM354.199 589.253L-169.767 64.5793L-171.182 65.9926L352.784 590.666L354.199 589.253ZM354.906 589.96L354.199 589.253L352.784 590.666L353.491 591.373L354.906 589.96ZM353.49 592.788L354.905 591.374L353.492 589.959L352.076 591.372L353.49 592.788ZM351.369 592.079L352.075 592.787L353.491 591.373L352.784 590.666L351.369 592.079ZM-172.597 67.4058L351.369 592.079L352.784 590.666L-171.182 65.9926L-172.597 67.4058ZM-173.304 66.6982L-172.597 67.4058L-171.182 65.9926L-171.889 65.285L-173.304 66.6982ZM-171.888 63.8708L-173.303 65.284L-171.89 66.6992L-170.475 65.2859L-171.888 63.8708ZM-188.859 82.2556L-188.153 82.9631L-186.738 81.5499L-187.444 80.8423L-188.859 82.2556ZM-188.86 83.6698L-187.445 82.2565L-188.858 80.8413L-190.274 82.2546L-188.86 83.6698ZM-188.153 82.9631L-188.859 82.2555L-190.274 83.6688L-189.568 84.3764L-188.153 82.9631ZM335.813 607.636L-188.153 82.9631L-189.568 84.3764L334.398 609.05L335.813 607.636ZM336.52 608.344L335.813 607.636L334.398 609.05L335.105 609.757L336.52 608.344ZM336.521 606.93L335.106 608.343L336.519 609.758L337.934 608.345L336.521 606.93ZM335.813 607.636L336.52 608.344L337.935 606.931L337.229 606.223L335.813 607.636ZM-188.153 82.9631L335.813 607.636L337.229 606.223L-186.738 81.5499L-188.153 82.9631Z" fill="black"/>
</g>
<circle cx="996.689" cy="269.1" r="114" fill="#00A991"/>
</svg>
