<svg width="24" height="24" viewBox="0 0 24 24" fill="none" xmlns="http://www.w3.org/2000/svg">
<path d="M12 4.36035C14.0755 4.36035 14.3344 4.36799 15.1487 4.40618C15.9623 4.44438 16.5161 4.57195 17.0034 4.76139C17.5076 4.95542 17.9323 5.2182 18.3571 5.64216C18.7455 6.02402 19.0461 6.48594 19.2378 6.99577C19.4265 7.48237 19.5548 8.03695 19.593 8.85049C19.6289 9.6648 19.6389 9.92375 19.6389 11.9992C19.6389 14.0747 19.6312 14.3337 19.593 15.148C19.5548 15.9615 19.4265 16.5154 19.2378 17.0027C19.0466 17.5128 18.746 17.9748 18.3571 18.3563C17.9751 18.7446 17.5132 19.0452 17.0034 19.2371C16.5168 19.4258 15.9623 19.5541 15.1487 19.5923C14.3344 19.6282 14.0755 19.6381 12 19.6381C9.92449 19.6381 9.66553 19.6305 8.85122 19.5923C8.03768 19.5541 7.48386 19.4258 6.9965 19.2371C6.48647 19.0457 6.02447 18.7451 5.64289 18.3563C5.25438 17.9745 4.95381 17.5126 4.76213 17.0027C4.57268 16.5161 4.44511 15.9615 4.40692 15.148C4.37101 14.3337 4.36108 14.0747 4.36108 11.9992C4.36108 9.92375 4.36872 9.6648 4.40692 8.85049C4.44511 8.03618 4.57268 7.48313 4.76213 6.99577C4.95328 6.48563 5.25392 6.02358 5.64289 5.64216C6.02458 5.25351 6.48655 4.95292 6.9965 4.76139C7.48386 4.57195 8.03692 4.44438 8.85122 4.40618C9.66553 4.37028 9.92449 4.36035 12 4.36035ZM12 8.1798C10.987 8.1798 10.0155 8.5822 9.29922 9.29849C8.58293 10.0148 8.18053 10.9863 8.18053 11.9992C8.18053 13.0122 8.58293 13.9837 9.29922 14.7C10.0155 15.4163 10.987 15.8187 12 15.8187C13.013 15.8187 13.9844 15.4163 14.7007 14.7C15.417 13.9837 15.8194 13.0122 15.8194 11.9992C15.8194 10.9863 15.417 10.0148 14.7007 9.29849C13.9844 8.5822 13.013 8.1798 12 8.1798ZM16.9653 7.98882C16.9653 7.73558 16.8647 7.49271 16.6856 7.31363C16.5065 7.13456 16.2636 7.03396 16.0104 7.03396C15.7571 7.03396 15.5143 7.13456 15.3352 7.31363C15.1561 7.49271 15.0555 7.73558 15.0555 7.98882C15.0555 8.24207 15.1561 8.48494 15.3352 8.66401C15.5143 8.84308 15.7571 8.94368 16.0104 8.94368C16.2636 8.94368 16.5065 8.84308 16.6856 8.66401C16.8647 8.48494 16.9653 8.24207 16.9653 7.98882ZM12 9.70757C12.6078 9.70757 13.1907 9.94902 13.6204 10.3788C14.0502 10.8086 14.2916 11.3915 14.2916 11.9992C14.2916 12.607 14.0502 13.1899 13.6204 13.6197C13.1907 14.0495 12.6078 14.2909 12 14.2909C11.3922 14.2909 10.8093 14.0495 10.3795 13.6197C9.94975 13.1899 9.70831 12.607 9.70831 11.9992C9.70831 11.3915 9.94975 10.8086 10.3795 10.3788C10.8093 9.94902 11.3922 9.70757 12 9.70757Z" fill="white"/>
</svg>
