<svg width="96" height="96" viewBox="0 0 96 96" fill="none" xmlns="http://www.w3.org/2000/svg">
<circle cx="48" cy="48" r="48" fill="white"/>
<path fill-rule="evenodd" clip-rule="evenodd" d="M37 42.136C37 36.5373 41.9901 32 47.5 32C53.0112 32 58 36.5373 58 42.136C58 47.1874 54.2918 53.1228 49.1974 61.2768C48.6468 62.1581 48.08 63.0652 47.5 64C46.92 63.0652 46.3532 62.1581 45.8026 61.2768C40.7082 53.1228 37 47.1874 37 42.136ZM43.5625 42.6667C43.5625 44.876 45.3252 46.6667 47.5 46.6667C49.6748 46.6667 51.4375 44.876 51.4375 42.6667C51.4375 40.4573 49.6748 38.6667 47.5 38.6667C45.3252 38.6667 43.5625 40.4573 43.5625 42.6667Z" fill="#007F6D"/>
</svg>
