<svg width="121" height="32" viewBox="0 0 121 32" fill="none" xmlns="http://www.w3.org/2000/svg">
    <path d="M0 10.2416C0 8.80214 0.774875 7.47417 2.02803 6.76595L12.0358 1.11009C13.2547 0.42123 14.7453 0.42123 15.9642 1.11009L25.972 6.76595C27.2251 7.47417 28 8.80215 28 10.2416V21.4068C28 22.8462 27.2251 24.1742 25.972 24.8824L15.9642 30.5383C14.7453 31.2271 13.2547 31.2271 12.0358 30.5383L2.02803 24.8824C0.774874 24.1742 0 22.8462 0 21.4068V10.2416Z" fill="#FFE6E6"/>
    <path d="M1.33301 10.8856C1.33301 9.45418 2.09935 8.13231 3.34154 7.42105L12.0159 2.45422C13.2448 1.75057 14.7545 1.75057 15.9834 2.45422L24.6578 7.42105C25.9 8.13231 26.6663 9.45418 26.6663 10.8856V20.7621C26.6663 22.1935 25.9 23.5154 24.6578 24.2267L15.9834 29.1935C14.7545 29.8971 13.2448 29.8971 12.0159 29.1935L3.34154 24.2267C2.09934 23.5154 1.33301 22.1935 1.33301 20.7621V10.8856Z" fill="#B0E4DD"/>
    <path d="M14 17.1008C14 15.5584 14.8886 14.1539 16.2824 13.4933L24.766 9.4724C25.6489 9.05393 26.6667 9.69786 26.6667 10.6749V20.7625C26.6667 22.194 25.9003 23.5158 24.6581 24.2271L15.992 29.1892C15.1048 29.6972 14 29.0566 14 28.0343L14 23.077L14 17.1008Z" fill="#00A991"/>
    <path d="M1.33301 10.6779C1.33301 9.70011 2.35224 9.0562 3.23529 9.47614L11.722 13.5121C13.1132 14.1737 13.9997 15.5769 13.9997 17.1174V27.5192C13.9997 27.5192 14.0106 28.472 14.235 28.7927C14.4273 29.0675 14.7365 29.2575 15.0162 29.3169C15.4201 29.4026 15.8348 29.2714 15.8348 29.2714C14.6985 29.9267 13.2996 29.9289 12.1613 29.2771L3.34154 24.227C2.09935 23.5158 1.33301 22.1939 1.33301 20.7625V10.6779Z" fill="#007F6D"/>
    <path d="M52.504 1.364L49.21 14H45.484L43.468 5.684L41.38 14H37.654L34.45 1.364H37.744L39.562 10.562L41.812 1.364H45.196L47.356 10.562L49.192 1.364H52.504ZM64.2716 1.364V14H61.1936V8.798H56.4056V14H53.3276V1.364H56.4056V6.314H61.1936V1.364H64.2716ZM68.8517 3.83V6.386H72.9737V8.762H68.8517V11.534H73.5137V14H65.7737V1.364H73.5137V3.83H68.8517ZM81.2359 14L78.6079 9.23H77.8699V14H74.7919V1.364H79.9579C80.9539 1.364 81.7999 1.538 82.4959 1.886C83.2039 2.234 83.7319 2.714 84.0799 3.326C84.4279 3.926 84.6019 4.598 84.6019 5.342C84.6019 6.182 84.3619 6.932 83.8819 7.592C83.4139 8.252 82.7179 8.72 81.7939 8.996L84.7099 14H81.2359ZM77.8699 7.052H79.7779C80.3419 7.052 80.7619 6.914 81.0379 6.638C81.3259 6.362 81.4699 5.972 81.4699 5.468C81.4699 4.988 81.3259 4.61 81.0379 4.334C80.7619 4.058 80.3419 3.92 79.7779 3.92H77.8699V7.052ZM88.8921 3.83V6.386H93.0141V8.762H88.8921V11.534H93.5541V14H85.8141V1.364H93.5541V3.83H88.8921ZM107.017 1.364V3.83H103.669V14H100.591V3.83H97.2429V1.364H107.017ZM113.818 14.126C112.63 14.126 111.538 13.85 110.542 13.298C109.558 12.746 108.772 11.978 108.184 10.994C107.608 9.998 107.32 8.882 107.32 7.646C107.32 6.41 107.608 5.3 108.184 4.316C108.772 3.332 109.558 2.564 110.542 2.012C111.538 1.46 112.63 1.184 113.818 1.184C115.006 1.184 116.092 1.46 117.076 2.012C118.072 2.564 118.852 3.332 119.416 4.316C119.992 5.3 120.28 6.41 120.28 7.646C120.28 8.882 119.992 9.998 119.416 10.994C118.84 11.978 118.06 12.746 117.076 13.298C116.092 13.85 115.006 14.126 113.818 14.126ZM113.818 11.318C114.826 11.318 115.63 10.982 116.23 10.31C116.842 9.638 117.148 8.75 117.148 7.646C117.148 6.53 116.842 5.642 116.23 4.982C115.63 4.31 114.826 3.974 113.818 3.974C112.798 3.974 111.982 4.304 111.37 4.964C110.77 5.624 110.47 6.518 110.47 7.646C110.47 8.762 110.77 9.656 111.37 10.328C111.982 10.988 112.798 11.318 113.818 11.318ZM39.688 30.126C38.764 30.126 37.936 29.976 37.204 29.676C36.472 29.376 35.884 28.932 35.44 28.344C35.008 27.756 34.78 27.048 34.756 26.22H38.032C38.08 26.688 38.242 27.048 38.518 27.3C38.794 27.54 39.154 27.66 39.598 27.66C40.054 27.66 40.414 27.558 40.678 27.354C40.942 27.138 41.074 26.844 41.074 26.472C41.074 26.16 40.966 25.902 40.75 25.698C40.546 25.494 40.288 25.326 39.976 25.194C39.676 25.062 39.244 24.912 38.68 24.744C37.864 24.492 37.198 24.24 36.682 23.988C36.166 23.736 35.722 23.364 35.35 22.872C34.978 22.38 34.792 21.738 34.792 20.946C34.792 19.77 35.218 18.852 36.07 18.192C36.922 17.52 38.032 17.184 39.4 17.184C40.792 17.184 41.914 17.52 42.766 18.192C43.618 18.852 44.074 19.776 44.134 20.964H40.804C40.78 20.556 40.63 20.238 40.354 20.01C40.078 19.77 39.724 19.65 39.292 19.65C38.92 19.65 38.62 19.752 38.392 19.956C38.164 20.148 38.05 20.43 38.05 20.802C38.05 21.21 38.242 21.528 38.626 21.756C39.01 21.984 39.61 22.23 40.426 22.494C41.242 22.77 41.902 23.034 42.406 23.286C42.922 23.538 43.366 23.904 43.738 24.384C44.11 24.864 44.296 25.482 44.296 26.238C44.296 26.958 44.11 27.612 43.738 28.2C43.378 28.788 42.85 29.256 42.154 29.604C41.458 29.952 40.636 30.126 39.688 30.126ZM56.4142 17.364V30H53.3362V24.798H48.5482V30H45.4702V17.364H48.5482V22.314H53.3362V17.364H56.4142ZM63.8922 30.126C62.7042 30.126 61.6122 29.85 60.6162 29.298C59.6322 28.746 58.8462 27.978 58.2582 26.994C57.6822 25.998 57.3942 24.882 57.3942 23.646C57.3942 22.41 57.6822 21.3 58.2582 20.316C58.8462 19.332 59.6322 18.564 60.6162 18.012C61.6122 17.46 62.7042 17.184 63.8922 17.184C65.0802 17.184 66.1662 17.46 67.1502 18.012C68.1462 18.564 68.9262 19.332 69.4902 20.316C70.0662 21.3 70.3542 22.41 70.3542 23.646C70.3542 24.882 70.0662 25.998 69.4902 26.994C68.9142 27.978 68.1342 28.746 67.1502 29.298C66.1662 29.85 65.0802 30.126 63.8922 30.126ZM63.8922 27.318C64.9002 27.318 65.7042 26.982 66.3042 26.31C66.9162 25.638 67.2222 24.75 67.2222 23.646C67.2222 22.53 66.9162 21.642 66.3042 20.982C65.7042 20.31 64.9002 19.974 63.8922 19.974C62.8722 19.974 62.0562 20.304 61.4442 20.964C60.8442 21.624 60.5442 22.518 60.5442 23.646C60.5442 24.762 60.8442 25.656 61.4442 26.328C62.0562 26.988 62.8722 27.318 63.8922 27.318ZM80.9766 21.432C80.9766 22.164 80.8086 22.836 80.4726 23.448C80.1366 24.048 79.6206 24.534 78.9246 24.906C78.2286 25.278 77.3646 25.464 76.3326 25.464H74.4246V30H71.3466V17.364H76.3326C77.3406 17.364 78.1926 17.538 78.8886 17.886C79.5846 18.234 80.1066 18.714 80.4546 19.326C80.8026 19.938 80.9766 20.64 80.9766 21.432ZM76.0986 23.016C76.6866 23.016 77.1246 22.878 77.4126 22.602C77.7006 22.326 77.8446 21.936 77.8446 21.432C77.8446 20.928 77.7006 20.538 77.4126 20.262C77.1246 19.986 76.6866 19.848 76.0986 19.848H74.4246V23.016H76.0986Z" fill="#262626"/>
</svg>
