<svg width="96" height="96" viewBox="0 0 96 96" fill="none" xmlns="http://www.w3.org/2000/svg">
<circle cx="48" cy="48" r="48" fill="white"/>
<path fill-rule="evenodd" clip-rule="evenodd" d="M53.3333 32V36H42.6667C41.1947 36 40 37.1947 40 38.6667V61.3333C40 62.8053 41.1947 64 42.6667 64H53.3333C54.8053 64 56 62.8053 56 61.3333V32H53.3333ZM45.3333 60H42.6667V58.6667H45.3333V60ZM42.6667 57.3333H45.3333V56H42.6667V57.3333ZM45.3333 54.6667H42.6667V53.3333H45.3333V54.6667ZM46.6667 60H49.3333V58.6667H46.6667V60ZM49.3333 57.3333H46.6667V56H49.3333V57.3333ZM46.6667 54.6667H49.3333V53.3333H46.6667V54.6667ZM53.3333 60H50.6667V58.6667H53.3333V60ZM50.6667 57.3333H53.3333V56H50.6667V57.3333ZM53.3333 54.6667H50.6667V53.3333H53.3333V54.6667ZM42.6667 50.6667H53.3333V40H42.6667V50.6667Z" fill="#007F6D"/>
</svg>
