<svg width="18" height="18" viewBox="0 0 18 18" fill="none" xmlns="http://www.w3.org/2000/svg">
<g clip-path="url(#clip0_427_74)">
<path fill-rule="evenodd" clip-rule="evenodd" d="M7 4.33333C7 3.97971 7.14048 3.64057 7.39052 3.39052C7.64057 3.14048 7.97971 3 8.33333 3H9.66667C10.0203 3 10.3594 3.14048 10.6095 3.39052C10.8595 3.64057 11 3.97971 11 4.33333V7H13.6667C14.0203 7 14.3594 7.14048 14.6095 7.39052C14.8595 7.64057 15 7.97971 15 8.33333V9.66667C15 10.0203 14.8595 10.3594 14.6095 10.6095C14.3594 10.8595 14.0203 11 13.6667 11H11V13.6667C11 14.0203 10.8595 14.3594 10.6095 14.6095C10.3594 14.8595 10.0203 15 9.66667 15H8.33333C7.97971 15 7.64057 14.8595 7.39052 14.6095C7.14048 14.3594 7 14.0203 7 13.6667V11H4.33333C3.97971 11 3.64057 10.8595 3.39052 10.6095C3.14048 10.3594 3 10.0203 3 9.66667V8.33333C3 7.97971 3.14048 7.64057 3.39052 7.39052C3.64057 7.14048 3.97971 7 4.33333 7H7V4.33333Z" fill="white"/>
</g>
<defs>
<clipPath id="clip0_427_74">
<rect width="18" height="18" fill="white"/>
</clipPath>
</defs>
</svg>
