<svg width="77" height="77" viewBox="0 0 77 77" fill="none" xmlns="http://www.w3.org/2000/svg">
<path d="M69.3 65.9282C69.569 66.2857 69.733 66.7111 69.7736 67.1566C69.8142 67.6021 69.7298 68.0502 69.5298 68.4504C69.3299 68.8506 69.0223 69.1871 68.6417 69.4222C68.261 69.6573 67.8224 69.7816 67.375 69.7812H9.625C9.17813 69.7812 8.74009 69.6567 8.35996 69.4218C7.97983 69.1869 7.67263 68.8507 7.47279 68.451C7.27294 68.0513 7.18834 67.6039 7.22847 67.1588C7.26861 66.7138 7.43188 66.2887 7.7 65.9312C9.83069 63.0745 12.672 60.8254 15.9414 59.4072C14.1493 57.7716 12.8936 55.6323 12.3391 53.2702C11.7846 50.9081 11.9573 48.4335 12.8344 46.1713C13.7116 43.9091 15.2522 41.9649 17.2541 40.594C19.256 39.2231 21.6257 38.4895 24.052 38.4895C26.4783 38.4895 28.8479 39.2231 30.8498 40.594C32.8517 41.9649 34.3924 43.9091 35.2695 46.1713C36.1467 48.4335 36.3193 50.9081 35.7648 53.2702C35.2104 55.6323 33.9547 57.7716 32.1625 59.4072C34.5213 60.4268 36.6648 61.8854 38.4789 63.7054C40.2931 61.8854 42.4366 60.4268 44.7953 59.4072C43.0032 57.7716 41.7475 55.6323 41.193 53.2702C40.6386 50.9081 40.8112 48.4335 41.6884 46.1713C42.5655 43.9091 44.1062 41.9649 46.1081 40.594C48.11 39.2231 50.4796 38.4895 52.9059 38.4895C55.3322 38.4895 57.7019 39.2231 59.7038 40.594C61.7057 41.9649 63.2463 43.9091 64.1235 46.1713C65.0006 48.4335 65.1733 50.9081 64.6188 53.2702C64.0643 55.6323 62.8086 57.7716 61.0165 59.4072C64.3011 60.8179 67.1576 63.0666 69.3 65.9282ZM8.18125 38.0187C8.43405 38.2083 8.72171 38.3462 9.02782 38.4247C9.33392 38.5031 9.65248 38.5204 9.9653 38.4758C10.2781 38.4311 10.5791 38.3252 10.851 38.1642C11.1229 38.0032 11.3604 37.7902 11.55 37.5374C13.0069 35.5949 14.896 34.0183 17.0678 32.9324C19.2396 31.8465 21.6344 31.2812 24.0625 31.2812C26.4906 31.2812 28.8854 31.8465 31.0572 32.9324C33.229 34.0183 35.1181 35.5949 36.575 37.5374C36.7991 37.8363 37.0898 38.0788 37.4239 38.2459C37.758 38.413 38.1264 38.4999 38.5 38.4999C38.8736 38.4999 39.242 38.413 39.5761 38.2459C39.9102 38.0788 40.2009 37.8363 40.425 37.5374C41.8819 35.5949 43.771 34.0183 45.9428 32.9324C48.1146 31.8465 50.5094 31.2812 52.9375 31.2812C55.3656 31.2812 57.7604 31.8465 59.9322 32.9324C62.104 34.0183 63.9931 35.5949 65.45 37.5374C65.6398 37.7902 65.8775 38.0032 66.1496 38.1641C66.4217 38.325 66.7228 38.4308 67.0358 38.4753C67.3487 38.5199 67.6674 38.5023 67.9736 38.4237C68.2798 38.3451 68.5675 38.207 68.8203 38.0172C69.073 37.8274 69.286 37.5897 69.4469 37.3176C69.6078 37.0455 69.7136 36.7444 69.7581 36.4314C69.8027 36.1185 69.7851 35.7998 69.7065 35.4936C69.6279 35.1874 69.4898 34.8997 69.3 34.6469C67.1692 31.7911 64.3279 29.5429 61.0586 28.126C62.8507 26.4903 64.1064 24.3511 64.6609 21.989C65.2154 19.6268 65.0427 17.1523 64.1656 14.8901C63.2884 12.6278 61.7478 10.6837 59.7459 9.31276C57.744 7.94185 55.3743 7.20825 52.948 7.20825C50.5217 7.20825 48.1521 7.94185 46.1502 9.31276C44.1483 10.6837 42.6076 12.6278 41.7305 14.8901C40.8533 17.1523 40.6807 19.6268 41.2352 21.989C41.7896 24.3511 43.0453 26.4903 44.8375 28.126C42.4787 29.1456 40.3352 30.6042 38.5211 32.4242C36.7069 30.6042 34.5634 29.1456 32.2046 28.126C33.9968 26.4903 35.2525 24.3511 35.807 21.989C36.3614 19.6268 36.1888 17.1523 35.3116 14.8901C34.4345 12.6278 32.8938 10.6837 30.8919 9.31276C28.89 7.94185 26.5204 7.20825 24.0941 7.20825C21.6678 7.20825 19.2981 7.94185 17.2962 9.31276C15.2943 10.6837 13.7537 12.6278 12.8765 14.8901C11.9994 17.1523 11.8267 19.6268 12.3812 21.989C12.9357 24.3511 14.1914 26.4903 15.9835 28.126C12.6988 29.5378 9.84232 31.7875 7.7 34.6499C7.51041 34.9027 7.37246 35.1904 7.29403 35.4965C7.21561 35.8026 7.19825 36.1212 7.24294 36.434C7.28762 36.7468 7.39349 37.0478 7.55448 37.3197C7.71548 37.5916 7.92846 37.8291 8.18125 38.0187Z" fill="white"/>
</svg>
