<svg width="136" height="198" viewBox="0 0 136 198" fill="none" xmlns="http://www.w3.org/2000/svg">
<path fill-rule="evenodd" clip-rule="evenodd" d="M72.7203 116.407C84.1711 125.276 101.422 126.805 113.387 118.782C118.758 115.179 123.048 111.188 126.309 106.827C136.223 120.96 136.299 134.365 128.189 147.338C121.489 158.055 109.851 167.776 93.5161 177.806C78.433 187.068 54.3246 195.688 42.919 195.754C39.5107 195.773 35.7538 195.416 31.6153 194.728C25.9426 193.786 10.0436 189.84 11.1497 190.072C9.13513 189.649 7.5109 189.46 3.85271 189.143C2.04458 188.986 1.24347 188.911 0.249212 188.795L0.0867033 190.185C1.09951 190.303 1.9099 190.38 3.73198 190.537C7.33422 190.849 8.9213 191.035 10.8626 191.442C9.70794 191.2 25.6478 195.156 31.3859 196.109C35.5973 196.809 39.4308 197.174 42.9271 197.153C54.626 197.086 78.9662 188.383 94.2485 178.999C110.753 168.865 122.534 159.025 129.376 148.08C137.858 134.513 137.692 120.37 127.174 105.626C133.352 96.7261 135.393 86.3392 133.728 74.6186C131.66 60.0699 124.117 44.1627 111.884 25.9845C106.695 18.2732 102.844 13.0923 93.2097 0.526096L92.0989 1.37774C101.716 13.9207 105.556 19.0868 110.723 26.766C122.848 44.784 130.311 60.5212 132.342 74.8155C133.932 86.0092 132.06 95.9082 126.298 104.429C126.13 104.204 125.959 103.98 125.785 103.755C121.964 98.7932 111.455 90.3269 101.723 84.8368C88.9695 77.6421 78.5565 75.6834 72.7262 81.0271C59.5341 93.1181 60.6013 107.021 72.7203 116.407ZM101.035 86.0558C110.616 91.4604 120.981 99.8116 124.677 104.609C124.94 104.951 125.198 105.293 125.45 105.634C122.252 110.009 117.992 114.008 112.607 117.619C101.171 125.289 84.5737 123.817 73.5773 115.301C62.1263 106.432 61.1373 93.5473 73.6719 82.0589C78.8884 77.2778 88.7697 79.1364 101.035 86.0558Z" fill="black"/>
</svg>
