<svg width="120" height="40" viewBox="0 0 120 40" fill="none" xmlns="http://www.w3.org/2000/svg">
<path d="M62.4803 22.2815C62.4803 21.7511 62.3703 21.2959 62.1501 20.9156C61.93 20.5254 61.5097 20.1602 60.8894 19.8199C60.279 19.4797 59.3784 19.1245 58.1877 18.7543C56.8569 18.324 55.6361 17.8187 54.5254 17.2383C53.4147 16.658 52.5242 15.9425 51.8538 15.092C51.1934 14.2315 50.8632 13.1758 50.8632 11.9251C50.8632 10.7143 51.2084 9.65366 51.8988 8.7431C52.5992 7.82253 53.5548 7.11209 54.7656 6.61178C55.9863 6.10146 57.3822 5.84631 58.9532 5.84631C60.5642 5.84631 61.97 6.13648 63.1708 6.71684C64.3715 7.2972 65.3021 8.09269 65.9625 9.10332C66.6329 10.1139 66.9681 11.2697 66.9681 12.5705H62.4953C62.4953 11.9301 62.3603 11.3697 62.0901 10.8894C61.8299 10.3991 61.4297 10.0139 60.8894 9.73371C60.359 9.45353 59.6886 9.31345 58.8781 9.31345C58.0976 9.31345 57.4472 9.43352 56.9269 9.67367C56.4066 9.90381 56.0163 10.219 55.7562 10.6193C55.496 11.0095 55.3659 11.4498 55.3659 11.9401C55.3659 12.4304 55.531 12.8656 55.8612 13.2459C56.1915 13.6261 56.6768 13.9763 57.3171 14.2965C57.9675 14.6067 58.768 14.9069 59.7186 15.1971C61.3096 15.6774 62.6404 16.2377 63.7111 16.8781C64.7918 17.5185 65.6073 18.274 66.1576 19.1445C66.708 20.0151 66.9831 21.0507 66.9831 22.2514C66.9831 23.5222 66.6529 24.6129 65.9925 25.5235C65.3421 26.424 64.4215 27.1145 63.2308 27.5947C62.0501 28.065 60.6592 28.3002 59.0582 28.3002C57.9776 28.3002 56.9119 28.1601 55.8612 27.8799C54.8106 27.5897 53.855 27.1545 52.9945 26.5741C52.1439 25.9938 51.4635 25.2533 50.9532 24.3527C50.4429 23.4522 50.1877 22.3865 50.1877 21.1558H54.7055C54.7055 21.8362 54.8106 22.4115 55.0207 22.8818C55.2309 23.3521 55.526 23.7324 55.9063 24.0225C56.2965 24.3127 56.7568 24.5229 57.2871 24.6529C57.8275 24.783 58.4178 24.8481 59.0582 24.8481C59.8387 24.8481 60.4791 24.738 60.9794 24.5178C61.4897 24.2977 61.865 23.9925 62.1051 23.6023C62.3553 23.212 62.4803 22.7718 62.4803 22.2815ZM76.6347 28.3002C74.9536 28.3002 73.5078 27.95 72.297 27.2495C71.0863 26.5391 70.1557 25.5885 69.5053 24.3978C68.8649 23.207 68.5447 21.8862 68.5447 20.4353V19.835C68.5447 18.1939 68.8499 16.748 69.4603 15.4973C70.0706 14.2365 70.9462 13.2509 72.0869 12.5404C73.2276 11.82 74.5834 11.4598 76.1544 11.4598C77.6953 11.4598 78.9961 11.795 80.0568 12.4654C81.1175 13.1258 81.923 14.0514 82.4733 15.2421C83.0236 16.4328 83.2988 17.8237 83.2988 19.4147V21.2158H70.3908V18.334H79.0512V18.0038C79.0512 17.4034 78.9411 16.8681 78.721 16.3978C78.5108 15.9175 78.1907 15.5373 77.7604 15.2571C77.3301 14.9769 76.7798 14.8369 76.1094 14.8369C75.3489 14.8369 74.7285 15.052 74.2482 15.4823C73.7679 15.9125 73.4177 16.5079 73.1976 17.2684C72.9874 18.0188 72.8824 18.8744 72.8824 19.835V20.4353C72.8824 21.3059 73.0425 22.0813 73.3627 22.7618C73.6829 23.4322 74.1431 23.9625 74.7435 24.3527C75.3439 24.733 76.0643 24.9231 76.9049 24.9231C77.6853 24.9231 78.4108 24.773 79.0812 24.4728C79.7616 24.1626 80.347 23.6973 80.8373 23.077L82.9386 25.3584C82.4283 26.0988 81.6428 26.7742 80.5821 27.3846C79.5215 27.995 78.2057 28.3002 76.6347 28.3002ZM89.4682 15.3022V28H85.1456V11.76H89.2131L89.4682 15.3022ZM94.3612 11.6549L94.2862 15.6624C94.0761 15.6324 93.8209 15.6073 93.5207 15.5873C93.2305 15.5573 92.9654 15.5423 92.7252 15.5423C91.9147 15.5423 91.2443 15.6824 90.714 15.9626C90.1937 16.2327 89.8034 16.628 89.5433 17.1483C89.2831 17.6586 89.143 18.284 89.123 19.0245L88.2525 18.7543C88.2525 17.3534 88.4376 16.1026 88.8078 15.002C89.178 13.9013 89.7134 13.0357 90.4138 12.4054C91.1242 11.775 91.9898 11.4598 93.0104 11.4598C93.2506 11.4598 93.4957 11.4798 93.7459 11.5198C93.996 11.5498 94.2011 11.5949 94.3612 11.6549ZM103.953 24.3377V17.1033C103.953 16.3328 103.758 15.7174 103.367 15.2571C102.987 14.7968 102.377 14.5667 101.536 14.5667C101.056 14.5667 100.641 14.6517 100.291 14.8219C99.9403 14.982 99.6701 15.2171 99.48 15.5273C99.2899 15.8275 99.1948 16.1827 99.1948 16.5929H94.8722C94.8722 15.6624 95.1523 14.8118 95.7127 14.0414C96.283 13.2609 97.0835 12.6355 98.1142 12.1652C99.1548 11.6949 100.376 11.4598 101.776 11.4598C103.037 11.4598 104.158 11.6699 105.139 12.0902C106.119 12.5104 106.89 13.1408 107.45 13.9813C108.02 14.8219 108.305 15.8725 108.305 17.1333V24.0826C108.305 24.9731 108.36 25.7036 108.471 26.2739C108.581 26.8343 108.741 27.3246 108.951 27.7448V28H104.583C104.373 27.5597 104.213 27.0094 104.103 26.349C104.003 25.6786 103.953 25.0082 103.953 24.3377ZM104.523 18.1089L104.553 20.5554H102.137C100.986 20.5554 100.145 20.8005 99.6151 21.2909C99.0948 21.7711 98.8346 22.3865 98.8346 23.137C98.8346 23.6973 99.0247 24.1626 99.405 24.5329C99.7852 24.8931 100.301 25.0732 100.951 25.0732C101.601 25.0732 102.167 24.9431 102.647 24.6829C103.127 24.4228 103.497 24.1026 103.758 23.7224C104.028 23.3421 104.168 22.9819 104.178 22.6417L105.319 24.4728C105.159 24.8831 104.938 25.3083 104.658 25.7486C104.388 26.1889 104.043 26.6041 103.623 26.9944C103.202 27.3746 102.697 27.6898 102.107 27.94C101.516 28.1801 100.816 28.3002 100.005 28.3002C98.9747 28.3002 98.0391 28.0951 97.1986 27.6848C96.3681 27.2645 95.7077 26.6892 95.2174 25.9587C94.7371 25.2183 94.4969 24.3778 94.4969 23.4372C94.4969 21.7461 95.1273 20.4353 96.3881 19.5047C97.6489 18.5742 99.525 18.1089 102.017 18.1089H104.523Z" fill="white"/>
<g clip-path="url(#clip0_49_1991)">
<path d="M39.8206 19.4863C39.8206 8.72433 31.0962 0 20.3342 0C9.57223 0 0.8479 8.72433 0.8479 19.4863C0.8479 30.2483 9.57223 38.9727 20.3342 38.9727C31.0962 38.9727 39.8206 30.2483 39.8206 19.4863Z" fill="#1355FF"/>
<path d="M16.4906 26.9879C14.5124 26.9879 12.6152 26.1975 11.2164 24.7905C9.81758 23.3836 9.03174 21.4754 9.03174 19.4856C9.03174 17.4959 9.81758 15.5877 11.2164 14.1808C12.6152 12.7738 14.5124 11.9834 16.4906 11.9834V26.9879Z" fill="white"/>
<path d="M24.0798 26.9879C22.5961 26.9879 21.1456 26.5479 19.9118 25.7235C18.6781 24.8992 17.7165 23.7275 17.1487 22.3567C16.5808 20.9858 16.4323 19.4774 16.7218 18.022C17.0113 16.5668 17.7257 15.2299 18.775 14.1808C19.8241 13.1316 21.161 12.4171 22.6162 12.1276C24.0716 11.838 25.58 11.9866 26.9509 12.5545C28.3217 13.1223 29.4933 14.0839 30.3177 15.3176C31.1421 16.5514 31.5821 18.0019 31.5821 19.4857H24.0798V26.9879Z" fill="white"/>
</g>
<defs>
<clipPath id="clip0_49_1991">
<rect width="38.9727" height="38.9727" fill="white" transform="translate(0.8479)"/>
</clipPath>
</defs>
</svg>
