<svg width="77" height="77" viewBox="0 0 77 77" fill="none" xmlns="http://www.w3.org/2000/svg">
<path d="M8.24996 46.75V71.5C8.24996 72.2293 8.53969 72.9288 9.05542 73.4445C9.57114 73.9603 10.2706 74.25 11 74.25H66C66.7293 74.25 67.4288 73.9603 67.9445 73.4445C68.4602 72.9288 68.75 72.2293 68.75 71.5V46.75M44 46.75V74.25M8.24996 55H44M74.25 22L66 2.75H11L2.74996 22H74.25ZM74.25 22V27.5C74.25 30.4174 73.091 33.2153 71.0281 35.2782C68.9652 37.3411 66.1673 38.5 63.25 38.5H61.875C58.9576 38.5 56.1597 37.3411 54.0968 35.2782C52.0339 33.2153 50.875 30.4174 50.875 27.5M26.125 22V27.5M26.125 27.5C26.125 30.4174 24.966 33.2153 22.9031 35.2782C20.8402 37.3411 18.0423 38.5 15.125 38.5H13.585C10.6676 38.5 7.86969 37.3411 5.80679 35.2782C3.74389 33.2153 2.58496 30.4174 2.58496 27.5V22M26.125 27.5C26.125 30.4174 27.2839 33.2153 29.3468 35.2782C31.4097 37.3411 34.2076 38.5 37.125 38.5H39.875C42.7923 38.5 45.5902 37.3411 47.6531 35.2782C49.716 33.2153 50.875 30.4174 50.875 27.5M50.875 22V27.5" stroke="black" stroke-linecap="round" stroke-linejoin="round"/>
</svg>
