<svg width="1440" height="660" viewBox="0 0 1440 660" fill="none" xmlns="http://www.w3.org/2000/svg">
<rect x="2183.4" y="-334.292" width="871" height="1337" rx="80" transform="rotate(45 2183.4 -334.292)" fill="#00A991"/>
<mask id="mask0_0_1" style="mask-type:luminance" maskUnits="userSpaceOnUse" x="995" y="300" width="400" height="401">
<circle cx="1195" cy="500.707" r="200" fill="white"/>
</mask>
<g mask="url(#mask0_0_1)">
<path d="M1095.02 93.2065L1095.73 92.4999L1095.02 91.7923L1094.31 92.4989L1095.02 93.2065ZM1095.72 93.9141L1096.43 93.2075L1095.72 93.9141ZM1093.6 94.6198L1092.9 93.9122L1092.19 94.6188L1092.89 95.3264L1093.6 94.6198ZM1094.31 95.3274L1095.02 94.6207L1095.02 94.6207L1094.31 95.3274ZM1618.28 620.001L1618.98 619.294L1618.28 620.001ZM1618.98 620.708L1618.27 621.415L1618.98 622.122L1619.69 621.416L1618.98 620.708ZM1620.4 619.295L1621.1 620.002L1621.81 619.296L1621.1 618.588L1620.4 619.295ZM1619.69 618.587L1618.98 619.294L1619.69 618.587ZM1078.05 110.177L1078.75 109.47L1078.05 108.763L1077.34 109.469L1078.05 110.177ZM1078.75 110.885L1079.46 110.178L1079.46 110.178L1078.75 110.885ZM1076.63 111.59L1075.93 110.883L1075.22 111.589L1075.92 112.297L1076.63 111.59ZM1077.34 112.298L1076.63 113.005L1076.63 113.005L1077.34 112.298ZM1601.3 636.971L1600.6 637.678L1601.3 636.971ZM1602.01 637.679L1601.3 638.385L1602.01 639.093L1602.72 638.386L1602.01 637.679ZM1603.43 636.265L1604.13 636.973L1604.84 636.266L1604.13 635.559L1603.43 636.265ZM1602.72 635.558L1603.43 634.851L1602.72 635.558ZM1061.78 127.855L1061.08 128.562L1061.08 128.562L1061.78 127.855ZM1061.08 127.148L1061.78 126.441L1061.08 125.733L1060.37 126.44L1061.08 127.148ZM1585.75 652.528L1586.46 651.822L1585.75 652.528ZM1586.46 653.236L1587.16 653.944L1587.87 653.237L1587.16 652.529L1586.46 653.236ZM1585.04 654.649L1584.33 655.356L1585.04 656.064L1585.75 655.357L1585.04 654.649ZM1584.33 653.942L1585.04 653.235L1584.33 653.942ZM1060.37 129.268L1059.66 129.975L1059.66 129.975L1060.37 129.268ZM1059.66 128.561L1058.95 127.853L1058.25 128.56L1058.95 129.268L1059.66 128.561ZM1044.11 144.118L1044.81 143.412L1044.11 142.704L1043.4 143.411L1044.11 144.118ZM1044.81 144.826L1045.52 144.119L1045.52 144.119L1044.81 144.826ZM1042.69 145.531L1041.98 144.824L1041.28 145.531L1041.98 146.238L1042.69 145.531ZM1043.4 146.239L1044.1 145.532L1044.1 145.532L1043.4 146.239ZM1567.36 670.912L1566.66 671.619L1567.36 670.912ZM1568.07 671.62L1567.36 672.326L1568.07 673.034L1568.78 672.327L1568.07 671.62ZM1569.49 670.207L1570.19 670.914L1570.9 670.208L1570.19 669.5L1569.49 670.207ZM1568.78 669.499L1568.07 670.206L1568.78 669.499ZM1027.84 161.796L1028.55 161.09L1028.55 161.09L1027.84 161.796ZM1027.14 161.089L1027.84 160.382L1027.14 159.675L1026.43 160.381L1027.14 161.089ZM1551.81 686.47L1551.1 687.176L1551.81 686.47ZM1552.51 687.177L1553.22 687.885L1553.93 687.178L1553.22 686.471L1552.51 687.177ZM1551.1 688.59L1550.39 689.297L1551.1 690.005L1551.81 689.298L1551.1 688.59ZM1550.39 687.883L1549.69 688.589L1550.39 687.883ZM1026.43 163.21L1027.13 162.503L1027.13 162.503L1026.43 163.21ZM1025.72 162.502L1025.01 161.794L1024.31 162.501L1025.01 163.209L1025.72 162.502ZM1010.16 178.059L1010.87 177.353L1010.17 176.645L1009.46 177.352L1010.16 178.059ZM1010.87 178.767L1011.58 178.06L1011.58 178.06L1010.87 178.767ZM1008.75 179.473L1008.04 178.765L1007.34 179.472L1008.04 180.179L1008.75 179.473ZM1009.46 180.18L1010.16 179.474L1010.16 179.474L1009.46 180.18ZM1533.42 704.853L1532.71 705.56L1533.42 704.853ZM1534.13 705.561L1533.42 706.268L1534.13 706.975L1534.84 706.269L1534.13 705.561ZM1535.54 704.148L1536.25 704.855L1536.96 704.149L1536.25 703.441L1535.54 704.148ZM1534.84 703.44L1534.13 704.147L1534.84 703.44ZM993.901 195.737L994.608 195.031L994.608 195.031L993.901 195.737ZM993.194 195.03L993.902 194.323L993.195 193.616L992.488 194.322L993.194 195.03ZM1517.87 720.411L1517.16 721.117L1517.87 720.411ZM1518.57 721.118L1519.28 721.826L1519.99 721.119L1519.28 720.412L1518.57 721.118ZM1517.16 722.532L1516.45 723.238L1517.16 723.946L1517.87 723.239L1517.16 722.532ZM1516.45 721.824L1515.74 722.531L1516.45 721.824ZM992.486 197.151L993.193 196.444L993.193 196.444L992.486 197.151ZM991.779 196.443L991.072 195.736L990.365 196.442L991.071 197.15L991.779 196.443ZM976.224 212L976.931 211.294L976.225 210.586L975.517 211.293L976.224 212ZM976.93 212.708L977.638 212.001L977.638 212.001L976.93 212.708ZM974.808 213.414L974.102 212.706L973.394 213.413L974.101 214.12L974.808 213.414ZM975.515 214.121L976.223 213.415L976.223 213.415L975.515 214.121ZM1499.48 738.795L1498.77 739.501L1499.48 738.795ZM1500.19 739.502L1499.48 740.209L1500.19 740.916L1500.89 740.21L1500.19 739.502ZM1501.6 738.089L1502.31 738.796L1503.02 738.09L1502.31 737.382L1501.6 738.089ZM1500.9 737.381L1500.19 738.088L1500.9 737.381ZM959.96 229.679L960.667 228.972L960.667 228.972L959.96 229.679ZM959.253 228.971L959.961 228.264L959.254 227.557L958.546 228.263L959.253 228.971ZM1483.93 754.352L1483.22 755.058L1483.93 754.352ZM1484.63 755.059L1485.34 755.767L1486.05 755.06L1485.34 754.353L1484.63 755.059ZM1483.22 756.473L1482.51 757.179L1483.22 757.887L1483.92 757.18L1483.22 756.473ZM1482.51 755.765L1481.8 756.472L1482.51 755.765ZM958.545 231.092L959.252 230.385L959.252 230.385L958.545 231.092ZM957.838 230.384L957.131 229.677L956.424 230.383L957.13 231.091L957.838 230.384ZM942.282 245.942L942.99 245.235L942.283 244.527L941.576 245.234L942.282 245.942ZM942.989 246.649L943.697 245.943L943.697 245.943L942.989 246.649ZM940.867 247.355L940.161 246.647L939.453 247.354L940.16 248.061L940.867 247.355ZM941.574 248.062L942.282 247.356L942.282 247.356L941.574 248.062ZM1465.54 772.736L1464.83 773.442L1465.54 772.736ZM1466.25 773.443L1465.54 774.15L1466.25 774.857L1466.95 774.151L1466.25 773.443ZM1467.66 772.03L1468.37 772.738L1469.08 772.031L1468.37 771.323L1467.66 772.03ZM1466.96 771.322L1466.25 772.029L1466.96 771.322ZM926.019 263.62L926.726 262.913L926.726 262.913L926.019 263.62ZM925.312 262.912L926.02 262.206L925.313 261.498L924.605 262.205L925.312 262.912ZM1449.98 788.293L1449.28 789L1449.98 788.293ZM1450.69 789.001L1451.4 789.708L1452.11 789.001L1451.4 788.294L1450.69 789.001ZM1449.28 790.414L1448.57 791.12L1449.28 791.828L1449.98 791.121L1449.28 790.414ZM1448.57 789.706L1447.86 790.413L1448.57 789.706ZM924.603 265.033L925.311 264.326L925.311 264.326L924.603 265.033ZM923.897 264.325L923.19 263.618L922.483 264.324L923.189 265.032L923.897 264.325ZM908.341 279.883L909.049 279.176L908.342 278.468L907.635 279.175L908.341 279.883ZM909.048 280.59L909.756 279.884L909.756 279.884L909.048 280.59ZM906.926 281.296L906.22 280.588L905.512 281.295L906.219 282.003L906.926 281.296ZM907.633 282.004L908.34 281.297L908.34 281.297L907.633 282.004ZM1431.6 806.677L1430.89 807.383L1431.6 806.677ZM1432.31 807.384L1431.6 808.091L1432.3 808.799L1433.01 808.092L1432.31 807.384ZM1433.72 805.971L1434.43 806.679L1435.13 805.972L1434.43 805.264L1433.72 805.971ZM1433.01 805.264L1432.31 805.97L1433.01 805.264ZM892.077 297.561L892.785 296.854L892.785 296.854L892.077 297.561ZM891.371 296.853L892.078 296.147L891.372 295.439L890.664 296.146L891.371 296.853ZM1416.04 822.234L1415.34 822.941L1416.04 822.234ZM1416.75 822.942L1417.46 823.649L1418.16 822.943L1417.46 822.235L1416.75 822.942ZM1415.34 824.355L1414.63 825.062L1415.33 825.769L1416.04 825.062L1415.34 824.355ZM1414.63 823.647L1413.92 824.354L1414.63 823.647ZM890.662 298.974L891.37 298.267L891.37 298.267L890.662 298.974ZM889.956 298.267L889.249 297.559L888.541 298.266L889.248 298.973L889.956 298.267ZM874.4 313.824L875.108 313.117L874.401 312.41L873.694 313.116L874.4 313.824ZM875.107 314.531L875.814 313.825L875.814 313.825L875.107 314.531ZM872.985 315.237L872.278 314.53L871.571 315.236L872.277 315.944L872.985 315.237ZM873.692 315.945L874.399 315.238L874.399 315.238L873.692 315.945ZM1397.66 840.618L1396.95 841.325L1397.66 840.618ZM1398.36 841.325L1397.66 842.032L1398.36 842.74L1399.07 842.033L1398.36 841.325ZM1399.78 839.912L1400.49 840.62L1401.19 839.913L1400.49 839.206L1399.78 839.912ZM1399.07 839.205L1398.37 839.911L1399.07 839.205ZM858.136 331.502L858.844 330.795L858.844 330.795L858.136 331.502ZM857.43 330.794L858.137 330.088L857.431 329.38L856.723 330.087L857.43 330.794ZM1382.1 856.175L1381.39 856.882L1382.1 856.175ZM1382.81 856.883L1383.52 857.59L1384.22 856.884L1383.52 856.176L1382.81 856.883ZM1381.39 858.296L1380.69 859.003L1381.39 859.71L1382.1 859.004L1381.39 858.296ZM1380.69 857.588L1379.98 858.295L1380.69 857.588ZM856.721 332.915L857.429 332.209L857.429 332.209L856.721 332.915ZM856.015 332.208L855.308 331.5L854.6 332.207L855.307 332.914L856.015 332.208ZM840.459 347.765L841.167 347.058L840.46 346.351L839.752 347.057L840.459 347.765ZM841.166 348.473L841.873 347.766L841.873 347.766L841.166 348.473ZM839.044 349.178L838.337 348.471L837.63 349.177L838.336 349.885L839.044 349.178ZM839.751 349.886L840.458 349.179L840.458 349.179L839.751 349.886ZM1363.72 874.559L1363.01 875.266L1363.72 874.559ZM1364.42 875.267L1363.72 875.973L1364.42 876.681L1365.13 875.974L1364.42 875.267ZM1365.84 873.853L1366.55 874.561L1367.25 873.854L1366.55 873.147L1365.84 873.853ZM1365.13 873.146L1364.42 873.852L1365.13 873.146ZM824.195 365.443L824.903 364.736L824.903 364.736L824.195 365.443ZM823.489 364.736L824.196 364.029L823.49 363.321L822.782 364.028L823.489 364.736ZM1348.16 890.116L1347.45 890.823L1348.16 890.116ZM1348.87 890.824L1349.57 891.531L1350.28 890.825L1349.58 890.117L1348.87 890.824ZM1347.45 892.237L1346.75 892.944L1347.45 893.651L1348.16 892.945L1347.45 892.237ZM1346.75 891.53L1346.04 892.236L1346.75 891.53ZM822.78 366.856L823.488 366.15L823.488 366.15L822.78 366.856ZM822.073 366.149L821.367 365.441L820.659 366.148L821.366 366.855L822.073 366.149ZM806.518 381.706L807.226 380.999L806.519 380.292L805.811 380.999L806.518 381.706ZM807.225 382.414L807.932 381.707L807.932 381.707L807.225 382.414ZM805.103 383.119L804.396 382.412L803.689 383.118L804.395 383.826L805.103 383.119ZM805.809 383.827L806.517 383.12L806.517 383.12L805.809 383.827ZM1329.78 908.5L1329.07 909.207L1329.78 908.5ZM1330.48 909.208L1329.77 909.914L1330.48 910.622L1331.19 909.915L1330.48 909.208ZM1331.9 907.794L1332.6 908.502L1333.31 907.795L1332.6 907.088L1331.9 907.794ZM1331.19 907.087L1330.48 907.794L1331.19 907.087ZM1094.31 93.9131L1095.02 94.6207L1096.43 93.2075L1095.73 92.4999L1094.31 93.9131ZM1094.31 95.3274L1095.72 93.9141L1094.31 92.4989L1092.9 93.9122L1094.31 95.3274ZM1095.02 94.6207L1094.31 93.9131L1092.89 95.3264L1093.6 96.034L1095.02 94.6207ZM1618.98 619.294L1095.02 94.6207L1093.6 96.034L1617.57 620.707L1618.98 619.294ZM1619.69 620.002L1618.98 619.294L1617.57 620.707L1618.27 621.415L1619.69 620.002ZM1619.69 618.587L1618.28 620.001L1619.69 621.416L1621.1 620.002L1619.69 618.587ZM1618.98 619.294L1619.69 620.002L1621.1 618.588L1620.4 617.881L1618.98 619.294ZM1095.02 94.6207L1618.98 619.294L1620.4 617.881L1096.43 93.2075L1095.02 94.6207ZM1077.34 110.884L1078.05 111.591L1079.46 110.178L1078.75 109.47L1077.34 110.884ZM1077.34 112.298L1078.75 110.885L1077.34 109.469L1075.93 110.883L1077.34 112.298ZM1078.05 111.591L1077.34 110.884L1075.92 112.297L1076.63 113.005L1078.05 111.591ZM1602.01 636.265L1078.05 111.591L1076.63 113.005L1600.6 637.678L1602.01 636.265ZM1602.72 636.972L1602.01 636.265L1600.6 637.678L1601.3 638.385L1602.72 636.972ZM1602.72 635.558L1601.3 636.971L1602.72 638.386L1604.13 636.973L1602.72 635.558ZM1602.01 636.265L1602.72 636.972L1604.13 635.559L1603.43 634.851L1602.01 636.265ZM1078.05 111.591L1602.01 636.265L1603.43 634.851L1079.46 110.178L1078.05 111.591ZM1062.49 127.149L1061.78 126.441L1060.37 127.854L1061.08 128.562L1062.49 127.149ZM1586.46 651.822L1062.49 127.149L1061.08 128.562L1585.04 653.235L1586.46 651.822ZM1587.16 652.529L1586.46 651.822L1585.04 653.235L1585.75 653.943L1587.16 652.529ZM1585.75 655.357L1587.16 653.944L1585.75 652.528L1584.33 653.942L1585.75 655.357ZM1583.63 654.648L1584.33 655.356L1585.75 653.943L1585.04 653.235L1583.63 654.648ZM1059.66 129.975L1583.63 654.648L1585.04 653.235L1061.08 128.562L1059.66 129.975ZM1058.95 129.268L1059.66 129.975L1061.08 128.562L1060.37 127.854L1058.95 129.268ZM1060.37 126.44L1058.95 127.853L1060.37 129.268L1061.78 127.855L1060.37 126.44ZM1043.4 144.825L1044.1 145.532L1045.52 144.119L1044.81 143.412L1043.4 144.825ZM1043.4 146.239L1044.81 144.826L1043.4 143.411L1041.98 144.824L1043.4 146.239ZM1044.1 145.532L1043.4 144.825L1041.98 146.238L1042.69 146.946L1044.1 145.532ZM1568.07 670.206L1044.1 145.532L1042.69 146.946L1566.66 671.619L1568.07 670.206ZM1568.78 670.913L1568.07 670.206L1566.66 671.619L1567.36 672.326L1568.78 670.913ZM1568.78 669.499L1567.36 670.912L1568.78 672.327L1570.19 670.914L1568.78 669.499ZM1568.07 670.206L1568.78 670.913L1570.19 669.5L1569.49 668.792L1568.07 670.206ZM1044.1 145.532L1568.07 670.206L1569.49 668.792L1045.52 144.119L1044.1 145.532ZM1028.55 161.09L1027.84 160.382L1026.43 161.795L1027.13 162.503L1028.55 161.09ZM1552.52 685.763L1028.55 161.09L1027.13 162.503L1551.1 687.176L1552.52 685.763ZM1553.22 686.471L1552.52 685.763L1551.1 687.176L1551.81 687.884L1553.22 686.471ZM1551.81 689.298L1553.22 687.885L1551.81 686.47L1550.39 687.883L1551.81 689.298ZM1549.69 688.589L1550.39 689.297L1551.81 687.884L1551.1 687.176L1549.69 688.589ZM1025.72 163.916L1549.69 688.589L1551.1 687.176L1027.13 162.503L1025.72 163.916ZM1025.01 163.209L1025.72 163.916L1027.13 162.503L1026.43 161.795L1025.01 163.209ZM1026.43 160.381L1025.01 161.794L1026.43 163.21L1027.84 161.796L1026.43 160.381ZM1009.46 178.766L1010.16 179.474L1011.58 178.06L1010.87 177.353L1009.46 178.766ZM1009.46 180.18L1010.87 178.767L1009.46 177.352L1008.04 178.765L1009.46 180.18ZM1010.16 179.474L1009.46 178.766L1008.04 180.179L1008.75 180.887L1010.16 179.474ZM1534.13 704.147L1010.16 179.474L1008.75 180.887L1532.71 705.56L1534.13 704.147ZM1534.84 704.854L1534.13 704.147L1532.71 705.56L1533.42 706.268L1534.84 704.854ZM1534.84 703.44L1533.42 704.853L1534.84 706.269L1536.25 704.855L1534.84 703.44ZM1534.13 704.147L1534.84 704.854L1536.25 703.441L1535.55 702.734L1534.13 704.147ZM1010.16 179.474L1534.13 704.147L1535.55 702.734L1011.58 178.06L1010.16 179.474ZM994.608 195.031L993.902 194.323L992.487 195.737L993.193 196.444L994.608 195.031ZM1518.57 719.704L994.608 195.031L993.193 196.444L1517.16 721.117L1518.57 719.704ZM1519.28 720.412L1518.57 719.704L1517.16 721.117L1517.87 721.825L1519.28 720.412ZM1517.87 723.239L1519.28 721.826L1517.87 720.411L1516.45 721.824L1517.87 723.239ZM1515.74 722.531L1516.45 723.238L1517.87 721.825L1517.16 721.117L1515.74 722.531ZM991.778 197.857L1515.74 722.531L1517.16 721.117L993.193 196.444L991.778 197.857ZM991.071 197.15L991.778 197.857L993.193 196.444L992.487 195.737L991.071 197.15ZM992.488 194.322L991.072 195.736L992.486 197.151L993.901 195.737L992.488 194.322ZM975.516 212.707L976.223 213.415L977.638 212.001L976.931 211.294L975.516 212.707ZM975.515 214.121L976.93 212.708L975.517 211.293L974.102 212.706L975.515 214.121ZM976.223 213.415L975.516 212.707L974.101 214.12L974.808 214.828L976.223 213.415ZM1500.19 738.088L976.223 213.415L974.807 214.828L1498.77 739.501L1500.19 738.088ZM1500.9 738.795L1500.19 738.088L1498.77 739.501L1499.48 740.209L1500.9 738.795ZM1500.9 737.381L1499.48 738.795L1500.89 740.21L1502.31 738.796L1500.9 737.381ZM1500.19 738.088L1500.9 738.795L1502.31 737.382L1501.6 736.675L1500.19 738.088ZM976.223 213.415L1500.19 738.088L1501.6 736.675L977.638 212.001L976.223 213.415ZM960.667 228.972L959.961 228.264L958.545 229.678L959.252 230.385L960.667 228.972ZM1484.63 753.645L960.667 228.972L959.252 230.385L1483.22 755.058L1484.63 753.645ZM1485.34 754.353L1484.63 753.645L1483.22 755.058L1483.92 755.766L1485.34 754.353ZM1483.92 757.18L1485.34 755.767L1483.93 754.352L1482.51 755.765L1483.92 757.18ZM1481.8 756.472L1482.51 757.179L1483.92 755.766L1483.22 755.058L1481.8 756.472ZM957.837 231.798L1481.8 756.472L1483.22 755.058L959.252 230.385L957.837 231.798ZM957.13 231.091L957.837 231.798L959.252 230.385L958.545 229.678L957.13 231.091ZM958.546 228.263L957.131 229.677L958.545 231.092L959.96 229.679L958.546 228.263ZM941.575 246.648L942.282 247.356L943.697 245.943L942.99 245.235L941.575 246.648ZM941.574 248.062L942.989 246.649L941.576 245.234L940.161 246.647L941.574 248.062ZM942.282 247.356L941.575 246.648L940.16 248.061L940.866 248.769L942.282 247.356ZM1466.25 772.029L942.282 247.356L940.866 248.769L1464.83 773.442L1466.25 772.029ZM1466.95 772.737L1466.25 772.029L1464.83 773.442L1465.54 774.15L1466.95 772.737ZM1466.96 771.322L1465.54 772.736L1466.95 774.151L1468.37 772.738L1466.96 771.322ZM1466.25 772.029L1466.95 772.737L1468.37 771.323L1467.66 770.616L1466.25 772.029ZM942.282 247.356L1466.25 772.029L1467.66 770.616L943.697 245.943L942.282 247.356ZM926.726 262.913L926.02 262.206L924.604 263.619L925.311 264.326L926.726 262.913ZM1450.69 787.586L926.726 262.913L925.311 264.326L1449.28 789L1450.69 787.586ZM1451.4 788.294L1450.69 787.586L1449.28 789L1449.98 789.707L1451.4 788.294ZM1449.98 791.121L1451.4 789.708L1449.98 788.293L1448.57 789.706L1449.98 791.121ZM1447.86 790.413L1448.57 791.12L1449.98 789.707L1449.28 789L1447.86 790.413ZM923.896 265.74L1447.86 790.413L1449.28 789L925.311 264.326L923.896 265.74ZM923.189 265.032L923.896 265.74L925.311 264.326L924.604 263.619L923.189 265.032ZM924.605 262.205L923.19 263.618L924.603 265.033L926.019 263.62L924.605 262.205ZM907.634 280.589L908.34 281.297L909.756 279.884L909.049 279.176L907.634 280.589ZM907.633 282.004L909.048 280.59L907.635 279.175L906.22 280.588L907.633 282.004ZM908.34 281.297L907.634 280.589L906.219 282.003L906.925 282.71L908.34 281.297ZM1432.31 805.97L908.34 281.297L906.925 282.71L1430.89 807.383L1432.31 805.97ZM1433.01 806.678L1432.31 805.97L1430.89 807.383L1431.6 808.091L1433.01 806.678ZM1433.01 805.264L1431.6 806.677L1433.01 808.092L1434.43 806.679L1433.01 805.264ZM1432.31 805.97L1433.01 806.678L1434.43 805.264L1433.72 804.557L1432.31 805.97ZM908.34 281.297L1432.31 805.97L1433.72 804.557L909.756 279.884L908.34 281.297ZM892.785 296.854L892.078 296.147L890.663 297.56L891.37 298.267L892.785 296.854ZM1416.75 821.527L892.785 296.854L891.37 298.267L1415.34 822.941L1416.75 821.527ZM1417.46 822.235L1416.75 821.527L1415.34 822.941L1416.04 823.648L1417.46 822.235ZM1416.04 825.062L1417.46 823.649L1416.04 822.234L1414.63 823.647L1416.04 825.062ZM1413.92 824.354L1414.63 825.062L1416.04 823.648L1415.34 822.941L1413.92 824.354ZM889.955 299.681L1413.92 824.354L1415.34 822.941L891.37 298.267L889.955 299.681ZM889.248 298.973L889.955 299.681L891.37 298.267L890.663 297.56L889.248 298.973ZM890.664 296.146L889.249 297.559L890.662 298.974L892.077 297.561L890.664 296.146ZM873.693 314.53L874.399 315.238L875.814 313.825L875.108 313.117L873.693 314.53ZM873.692 315.945L875.107 314.531L873.694 313.116L872.278 314.53L873.692 315.945ZM874.399 315.238L873.693 314.53L872.277 315.944L872.984 316.651L874.399 315.238ZM1398.37 839.911L874.399 315.238L872.984 316.651L1396.95 841.325L1398.37 839.911ZM1399.07 840.619L1398.37 839.911L1396.95 841.325L1397.66 842.032L1399.07 840.619ZM1399.07 839.205L1397.66 840.618L1399.07 842.033L1400.49 840.62L1399.07 839.205ZM1398.37 839.911L1399.07 840.619L1400.49 839.206L1399.78 838.498L1398.37 839.911ZM874.399 315.238L1398.37 839.911L1399.78 838.498L875.814 313.825L874.399 315.238ZM858.844 330.795L858.137 330.088L856.722 331.501L857.429 332.209L858.844 330.795ZM1382.81 855.469L858.844 330.795L857.429 332.209L1381.39 856.882L1382.81 855.469ZM1383.52 856.176L1382.81 855.469L1381.39 856.882L1382.1 857.589L1383.52 856.176ZM1382.1 859.004L1383.52 857.59L1382.1 856.175L1380.69 857.588L1382.1 859.004ZM1379.98 858.295L1380.69 859.003L1382.1 857.589L1381.39 856.882L1379.98 858.295ZM856.014 333.622L1379.98 858.295L1381.39 856.882L857.429 332.209L856.014 333.622ZM855.307 332.914L856.014 333.622L857.429 332.209L856.722 331.501L855.307 332.914ZM856.723 330.087L855.308 331.5L856.721 332.915L858.136 331.502L856.723 330.087ZM839.752 348.472L840.458 349.179L841.873 347.766L841.167 347.058L839.752 348.472ZM839.751 349.886L841.166 348.473L839.752 347.057L838.337 348.471L839.751 349.886ZM840.458 349.179L839.752 348.472L838.336 349.885L839.043 350.592L840.458 349.179ZM1364.42 873.852L840.458 349.179L839.043 350.592L1363.01 875.266L1364.42 873.852ZM1365.13 874.56L1364.42 873.852L1363.01 875.266L1363.72 875.973L1365.13 874.56ZM1365.13 873.146L1363.72 874.559L1365.13 875.974L1366.55 874.561L1365.13 873.146ZM1364.42 873.852L1365.13 874.56L1366.55 873.147L1365.84 872.439L1364.42 873.852ZM840.458 349.179L1364.42 873.852L1365.84 872.439L841.873 347.766L840.458 349.179ZM824.903 364.736L824.196 364.029L822.781 365.442L823.488 366.15L824.903 364.736ZM1348.87 889.41L824.903 364.736L823.488 366.15L1347.45 890.823L1348.87 889.41ZM1349.58 890.117L1348.87 889.41L1347.45 890.823L1348.16 891.531L1349.58 890.117ZM1348.16 892.945L1349.57 891.531L1348.16 890.116L1346.75 891.53L1348.16 892.945ZM1346.04 892.236L1346.75 892.944L1348.16 891.531L1347.45 890.823L1346.04 892.236ZM822.072 367.563L1346.04 892.236L1347.45 890.823L823.488 366.15L822.072 367.563ZM821.366 366.855L822.072 367.563L823.488 366.15L822.781 365.442L821.366 366.855ZM822.782 364.028L821.367 365.441L822.78 366.856L824.195 365.443L822.782 364.028ZM805.81 382.413L806.517 383.12L807.932 381.707L807.226 380.999L805.81 382.413ZM805.809 383.827L807.225 382.414L805.811 380.999L804.396 382.412L805.809 383.827ZM806.517 383.12L805.81 382.413L804.395 383.826L805.102 384.534L806.517 383.12ZM1330.48 907.794L806.517 383.12L805.102 384.534L1329.07 909.207L1330.48 907.794ZM1331.19 908.501L1330.48 907.794L1329.07 909.207L1329.77 909.914L1331.19 908.501ZM1331.19 907.087L1329.78 908.5L1331.19 909.915L1332.6 908.502L1331.19 907.087ZM1330.48 907.794L1331.19 908.501L1332.6 907.088L1331.9 906.38L1330.48 907.794ZM806.517 383.12L1330.48 907.794L1331.9 906.38L807.932 381.707L806.517 383.12Z" fill="black"/>
</g>
<circle cx="1464" cy="373.707" r="114" fill="#00A991"/>
<rect x="-227.89" y="-780.646" width="871" height="1337" rx="80" transform="rotate(45 -227.89 -780.646)" fill="#00A991"/>
<circle cx="208.708" cy="0.354492" r="61" fill="#E3E2CD"/>
</svg>
